PathFileType	4	(X/Y/Z)	Demo_SinglePerson_P1_0-412.trc
DataRate	CameraRate	NumFrames	NumMarkers	Units	OrigDataRate	OrigDataStartFrame	OrigNumFrames
29	29	4	22	m	29	154	412
Frame#	Time	Hip			RHip			RKnee			RAnkle			RBigToe			RSmallToe			RHeel			LHip			LKnee			LAnkle			LBigToe			LSmallToe			LHeel			Neck			Head			Nose			RShoulder			RElbow			RWrist			LShoulder			LElbow			LWrist			
		X1	Y1	Z1	X2	Y2	Z2	X3	Y3	Z3	X4	Y4	Z4	X5	Y5	Z5	X6	Y6	Z6	X7	Y7	Z7	X8	Y8	Z8	X9	Y9	Z9	X10	Y10	Z10	X11	Y11	Z11	X12	Y12	Z12	X13	Y13	Z13	X14	Y14	Z14	X15	Y15	Z15	X16	Y16	Z16	X17	Y17	Z17	X18	Y18	Z18	X19	Y19	Z19	X20	Y20	Z20	X21	Y21	Z21	X22	Y22	Z22	
154	5.310344827586207	5.855424140194612	-1.005787698422359	-2.6321746714459215	6.011969926179167	-1.1904841101904038	-2.802962167306426	6.650658395578975	-2.8695043246875716	-2.896914035900647	-17.939975740571576	14.482505340824831	8.95748936868342	-14.264265332887092	11.61984008886964	6.349020581767663	-10.505475880763301	8.79157288015001	4.784042413705187	-11.267668699526077	9.523415140407552	5.765765377054585	5.715436895045713	-1.0137224541227778	-2.4854661514785077	6.224743713013506	-2.499453123446275	-2.6451524920660474	15.305843258590926	-9.765225809682123	-7.03453858437221	15.922904662408786	-10.668808344892007	-6.295546769626483	12.420688798794894	-7.962693205121171	-4.937639250166074	27.859974484097023	-19.049367523599354	-13.264948164248821	6.817731135071249	0.8689711973637879	-3.1369047312057154	7.19394364955166	1.6445391711381798	-3.186523110537987	6.8064202885757314	1.2771674649556384	-2.6322174916465446	6.987177836828061	0.5700212774621618	-3.6720795772476937	6.647979477480291	0.030786096949084397	-3.3721395465431714	6.457009905549193	0.6981325331419967	-2.6052021358703707	6.523626532351009	0.55516629745472	-2.8599226248514724	5.870460755258993	-0.07720141939848944	-2.3554715403314783	5.678708756785017	0.31612263802731166	-1.7485150252498267
155	5.344827586206897	5.8591663278822335	-1.0068822398163948	-2.636238399922679	6.0397696793737685	-1.2183115895842713	-2.831932293455235	6.847294093667089	-3.036104080470469	-3.0104044098130567	-16.531539187569653	13.428646925735563	8.214174167512205	-13.11975831776334	10.751404130148408	5.820657265308531	-10.01171692132754	8.412795130867195	4.555029550341308	-10.553626205370051	8.969834640070546	5.348853904979228	5.726782285980703	-1.0145301511498115	-2.497305051966487	6.333343726083664	-2.613321690437842	-2.6997318711637543	16.688267122454196	-10.834633780447525	-7.621547588511245	14.683927287216727	-9.742908358868515	-5.7553451205091415	12.298210506059732	-7.885657435775077	-4.853762670105161	26.481724173322686	-18.074379854563865	-12.44583056367235	6.799623320108161	0.8994684450983129	-3.0717567926940257	7.199869668929749	1.6615194364275168	-3.180920539373311	6.82918932166087	1.3150030883517778	-2.6340621212055213	6.951313425436057	0.597625777272337	-3.591199529635325	6.577467918018459	0.08872902233735312	-3.242076471505053	6.3538232119770335	0.7187144206264409	-2.3884370556868975	6.495801100959795	0.6127756262817805	-2.760228786311824	5.926616456577069	-0.09346559268358265	-2.4368946288191964	5.702108232035786	0.29846281482252535	-1.8040596550439387
156	5.379310344827586	5.893510219135966	-1.047515517894212	-2.6750706563840008	6.024752942745764	-1.2001520112141326	-2.8164434503880322	6.999939691439051	-3.174743494488245	-3.089400352325186	-15.72718070242888	12.830468979805003	7.828336342709534	-13.479706285518134	11.014055293517997	5.916948369886699	-10.903861542127057	9.085598004528302	4.9217485040400515	-10.777521909948064	9.14154479153117	5.470880809277493	5.7533051979809775	-1.0402967968501802	-2.526606802738686	6.386852559370312	-2.666757833298044	-2.7272832359706407	14.915484913437169	-9.509135681327688	-6.766704121264674	15.69118133141232	-10.541754850513783	-6.082419386739486	12.952339600840311	-8.411887228813903	-5.07226517131648	26.657901325344515	-18.25719064908691	-12.358759910298328	6.794920648256653	0.9079013905362301	-3.0539954777047282	7.174619645754244	1.6665507651458613	-3.0959511499126338	6.781213005999602	1.282587197827145	-2.557435380271273	6.8935110292942605	0.6043698064988214	-3.4817928092581725	6.3766218390089975	0.19643412606525976	-2.8837806555272802	6.209959011741334	0.7304989764673285	-2.0979657653263217	6.56402710446065	0.5913914410831418	-2.90030082361146	5.989340876486709	-0.10763368745806295	-2.5254099156344334	5.740839899542699	0.272439377038575	-1.8897704168161007
157	5.413793103448276	5.94723971908457	-1.1071272806892654	-2.7341999772493217	6.069825063253363	-1.2458891281139515	-2.8630664739089844	7.1680520195416815	-3.3194321852412503	-3.1800203164558605	-15.312454401904954	12.5108434970946	7.5546846599049005	-11.50015780804063	9.517964053047432	5.084516408779532	-9.463574115775682	7.985135535968259	4.280817832921321	-10.204583448637358	8.698446578308484	5.148266586137886	5.79333750357461	-1.0811956918461048	-2.570329577558351	6.721868646650429	-2.9576827041028726	-2.9191218672791934	19.843730751272684	-13.210242472679898	-9.072158203771423	16.72772933447978	-11.320853012673673	-6.515895896679998	14.37562415409933	-9.470884419844012	-5.714313395469314	43.230830372746276	-30.554067069823454	-20.110379858915326	6.806260517638478	0.9206390652457018	-3.0650675246391867	7.178131647297435	1.693088556965917	-3.0673015510236956	6.75520520068924	1.2643213337536836	-2.518018936116873	6.852965807470033	0.6312632303440294	-3.390322760241352	6.200956640693653	0.24034290759953567	-2.5915402148783575	6.089093737244626	0.7618008656894851	-1.8089911205474176	6.616900961274025	0.6256202725967663	-2.9659471468813794	6.008403718512469	0.013996242789298367	-2.4776119029450494	5.878418363026826	0.40879374476180524	-1.940611929860304
